<?xml version="1.0" encoding="UTF-8"?>
<svg id="Capa_1" data-name="Capa 1" xmlns="http://www.w3.org/2000/svg" viewBox="0 0 299.96 80.57">
  <defs>
    <style>
      .cls-1 {
        fill: #706f6f;
      }

      .cls-2 {
        fill: #716f6f;
        font-family: LucidaConsole, 'Lucida Console';
        font-size: 18.56px;
      }
    </style>
  </defs>
  <path id="Trazo" class="cls-1" d="M150.24,43.4l-30.47-30.47h-16.94V0h-12.59v12.93h-30.12S51.53,3.4,49.18,1.05s-5.29,0-5.29,0L0,44.81c.24,10.12,6.59,6.71,6.59,6.71L45.76,12.1l31.53,31.41,72.94-.12Z"/>
  <rect class="cls-1" x="32.88" y="35.1" width="10.71" height="10.71"/>
  <rect class="cls-1" x="32.88" y="49.58" width="10.71" height="10.71"/>
  <rect class="cls-1" x="48.65" y="35.1" width="10.71" height="10.71"/>
  <path class="cls-1" d="M53.68,49.56c-1.73-.01-3.45-.03-5.18-.04.01,1.63.03,3.26.04,4.9h1.02"/>
  <text class="cls-2" transform="translate(66.31 76.65) scale(1.16 1)"><tspan x="0" y="0">SISTEMA DE ALARMAS</tspan></text>
</svg>